PathFileType	4	(X/Y/Z)	pose_F01_0-95.trc
DataRate	CameraRate	NumFrames	NumMarkers	Units	OrigDataRate	OrigDataStartFrame	OrigNumFrames
30	30	6	21	m	30	83	95
Frame#	Time	CHip			RHip			RKnee			RAnkle			RBigToe			RSmallToe			RHeel			LHip			LKnee			LAnkle			LBigToe			LSmallToe			LHeel			Neck			Nose			RShoulder			RElbow			RWrist			LShoulder			LElbow			LWrist			
		X1	Y1	Z1	X2	Y2	Z2	X3	Y3	Z3	X4	Y4	Z4	X5	Y5	Z5	X6	Y6	Z6	X7	Y7	Z7	X8	Y8	Z8	X9	Y9	Z9	X10	Y10	Z10	X11	Y11	Z11	X12	Y12	Z12	X13	Y13	Z13	X14	Y14	Z14	X15	Y15	Z15	X16	Y16	Z16	X17	Y17	Z17	X18	Y18	Z18	X19	Y19	Z19	X20	Y20	Z20	X21	Y21	Z21	
83	2.7666666666666666	-0.29931089584765214	1.86566088310761	-0.676252743468722	-0.3083517816337091	1.86715192916158	-0.6134439175113274	-0.32119879347037905	1.7403082433562358	-0.4982171963464644													-0.28298961692763086	1.864754227071374	-0.737118687265849	-0.23897153465697604	1.7638355370020706	-0.729368040960904	-0.253093107029543	1.6422463480597265	-0.7263220785422395	-0.24101748814388924	1.6003396575087554	-0.7219903137502093	-0.2354860569718144	1.6073355472560678	-0.7570578153261979	-0.26091162479911184	1.6382621986162484	-0.7107211543505683	-0.28497155959142767	2.020976578821981	-0.7358800045450762	-0.2650487936334991	2.0900739978429286	-0.7619362247934103	-0.30241485484118125	2.030501838109817	-0.6473390234143718	-0.30850174172240347	1.9628994966343796	-0.5387872283172241	-0.3026385073259889	1.9419795624141816	-0.4167094723510138	-0.26458501663717515	2.0197304592139846	-0.8245009314728017	-0.24966077294498462	1.9506034910141616	-0.8086434666460636	-0.23116070375487677	1.9629852817117497	-0.7419355993096821
84	2.8	-0.29985132291567484	1.8674555345204797	-0.6738373057492469	-0.308987936255001	1.8704544891369652	-0.6086856158049326	-0.32119879347037905	1.7403082433562358	-0.4982171963464644													-0.2841152288561129	1.8678373241526334	-0.7304520021696245	-0.23897153465697604	1.7638355370020706	-0.729368040960904	-0.253093107029543	1.6422463480597265	-0.7263220785422395	-0.24101748814388924	1.6003396575087554	-0.7219903137502093	-0.2354860569718144	1.6073355472560678	-0.7570578153261979	-0.26091162479911184	1.6382621986162484	-0.7107211543505683	-0.28707125662492056	2.022069266816394	-0.7336690481942248	-0.26717842174768	2.0888503595954706	-0.7586623443994217	-0.30553396333579197	2.030230127392237	-0.648084947206169	-1.5483515331398574	1.8627958230282313	0.749016930356952	-0.30464168611551257	1.9111098148022798	-0.43701081580281254	-0.26684112459679704	2.019898059256415	-0.8222629417944989	-1.139184533136146	1.8465888974073252	0.05782309444907416	-0.23858088375988246	1.9249032751398423	-0.7267139451096981
85	2.8333333333333335	-0.3003917499836975	1.8692501859333495	-0.6714218680297719	-0.31231776109158543	1.8701383004627685	-0.6096405498892462	-0.32119879347037905	1.7403082433562358	-0.4982171963464644													-0.285240840784595	1.8709204212338926	-0.7237853170734001	-0.23897153465697604	1.7638355370020706	-0.729368040960904	-0.253093107029543	1.6422463480597265	-0.7263220785422395	-0.24101748814388924	1.6003396575087554	-0.7219903137502093	-0.2354860569718144	1.6073355472560678	-0.7570578153261979	-0.26091162479911184	1.6382621986162484	-0.7107211543505683	-0.2912587876772716	2.02397238995923	-0.7290799243260067	-0.2717334186218248	2.0906841993998584	-0.7455080058832552	-0.3098946843534509	2.0295747305792085	-0.643801427687645	-1.518814534575988	1.86086128734515	0.6883268409076269	-0.302736176092291	1.888562954860297	-0.46628282787195063	-0.26738292921736	2.0212847346466334	-0.8141010412014443	-1.1574466318856869	1.8441464067961648	0.07700381217778307	-0.24614811635855724	1.8938304762232552	-0.727572687957084
86	2.8666666666666667	-0.3011496791609632	1.8787587485295212	-0.6669850085972214	-0.3131093157953017	1.8757093418185053	-0.6051683972224038	-0.32119879347037905	1.7403082433562358	-0.4982171963464644													-0.28636645271307704	1.874003518315152	-0.7171186319771756	-0.23897153465697604	1.7638355370020706	-0.729368040960904	-0.253093107029543	1.6422463480597265	-0.7263220785422395	-0.24101748814388924	1.6003396575087554	-0.7219903137502093	-0.2354860569718144	1.6073355472560678	-0.7570578153261979	-0.26091162479911184	1.6382621986162484	-0.7107211543505683	-0.2936261532657344	2.0281508547092306	-0.7187262377782617	-0.2733841838644726	2.0937303327314223	-0.732338031754752	-0.3130212900465465	2.0316817172720025	-0.6281850995432136	-1.5023280594291275	1.8600164942450854	0.6535585302870102	-0.310426905778039	1.887761019777117	-0.5000687870797015	-0.2729937490744197	2.025014783309873	-0.8046753516517829	-0.2738113092617208	1.9465673206552232	-0.7915416955056012	-0.26105627068893744	1.881147923943768	-0.7298598484213912
87	2.9	-0.3022748407092324	1.881226361260236	-0.6619136517474064	-0.31398363412204894	1.8795656983292017	-0.6002176657633783	-0.32119879347037905	1.7403082433562358	-0.4982171963464644													-0.28749206464155913	1.8770866153964114	-0.7104519468809513	-0.23897153465697604	1.7638355370020706	-0.729368040960904	-0.253093107029543	1.6422463480597265	-0.7263220785422395	-0.24101748814388924	1.6003396575087554	-0.7219903137502093	-0.2354860569718144	1.6073355472560678	-0.7570578153261979	-0.26091162479911184	1.6382621986162484	-0.7107211543505683	-0.29628771289423816	2.032090567163466	-0.7003363834854209	-0.282257929224095	2.0998188845722314	-0.716338095396266	-0.316191651315431	2.033744320917558	-0.6122832092712932	-1.4976130166970663	1.8536952566382199	0.6472625099938818	-0.3189469819057099	1.8784056476383455	-0.5095857164034351	-0.2761041671302082	2.031313157652096	-0.7865271146635117	-1.1936184656376734	1.8424917466424269	0.12263576070887623	-0.26273503293759265	1.8814265603518172	-0.7341951930087381
88	2.933333333333333	-0.3039929796675312	1.8826182035708068	-0.6520886888268763	-0.31617582498352015	1.8814009604715938	-0.5895254992392255	-0.32119879347037905	1.7403082433562358	-0.4982171963464644													-0.28861767657004117	1.8801697124776708	-0.7037852617847268	-0.23897153465697604	1.7638355370020706	-0.729368040960904	-0.253093107029543	1.6422463480597265	-0.7263220785422395	-0.24101748814388924	1.6003396575087554	-0.7219903137502093	-0.2354860569718144	1.6073355472560678	-0.7570578153261979	-0.26091162479911184	1.6382621986162484	-0.7107211543505683	-0.30088306255579844	2.032646053439561	-0.6880813590067072	-0.28735540418613487	2.1013518126098125	-0.6961242050348808	-0.31946820773184936	2.0342440437531195	-0.5970818965016248	-1.5030699810601316	1.852017734712812	0.6578461539277402	-0.33526220278112834	1.8685908824825919	-0.525747921132335	-0.2787201433649476	2.0340768769887174	-0.7762895621306211	-1.2094420933674261	1.8442112538489466	0.1489751727762156	-0.2644137951862478	1.8817051967598661	-0.7385305375960852
